<?xml version="1.0" encoding="iso-8859-1"?>
<!-- Generator: Adobe Illustrator 19.0.0, SVG Export Plug-In . SVG Version: 6.00 Build 0)  -->
<svg version="1.1" id="Layer_1" xmlns="http://www.w3.org/2000/svg" xmlns:xlink="http://www.w3.org/1999/xlink" x="0px" y="0px"
	 viewBox="0 0 512 512" style="enable-background:new 0 0 512 512;" xml:space="preserve">
<polygon style="fill:#E9573F;" points="373.891,196.094 347.766,145.484 315.234,99.984 309.891,50.656 309.891,18.656 
	273.891,18.656 219.234,57.328 185.891,101.328 172.562,174.75 129.891,166.656 115.25,229.328 123.234,270.875 245.328,281.422 
	380.578,270.875 392.562,238.75 "/>
<polygon style="fill:#FC6E51;" points="256,146 220.578,202.125 279.578,198 "/>
<polygon style="fill:#FFCE54;" points="380.578,270.875 301.922,208.016 220.578,208.016 157.922,238.75 115.25,313.344 
	115.25,398.672 137.922,452.328 209.922,497.344 303.25,497.344 375.25,452.328 407.25,346.672 "/>
<path d="M400.156,282.484c3.953-16.203,4.141-32.828,0.531-49.656c-5.562-25.891-20.125-51.547-43.312-76.203
	c-25.078-26.688-39.203-57.875-41.984-92.734c-2.094-26.297,3.391-44.953,3.438-45.109L324.578,0l-18.875,5.391
	c-51.797,14.797-88.531,35.891-112.312,64.469c-20.516,24.641-31.859,55.344-34.469,93.484c-9.656-4.688-19.328-8.719-20.984-9.406
	l-9.688-4.016l-4.172,9.609c-21.031,48.406-19.078,87.719-9.344,117.312C102.781,299.25,96,324.828,96,352
	c0,88.375,71.641,160,160,160s160-71.625,160-160C416,327.094,410.312,303.5,400.156,282.484z M139.656,177.906
	c8.203,3.688,18.375,8.531,23.297,11.922l16.719,11.469v-20.266c0-41.281,9.844-73.172,30.109-97.531
	c18.406-22.109,46.328-39.344,85.047-52.406c-1.078,8.812-1.766,20.281-0.781,33.5c2.047,27.625,12,68.562,47.797,106.656
	c25.484,27.109,38.922,54.875,40,81.922c-19.688-25.016-46.672-44.031-77.75-53.812c-29.844-30.391-41.031-73.297-41.031-73.297
	c-27.375,22.656-43.344,45.734-48.859,71.469c-33.422,9.016-62.5,28.594-83.453,54.922
	C126.953,229.141,129.906,204.031,139.656,177.906z M256,192c-6.234,0-12.391,0.375-18.438,1.062
	c3.438-9.859,9.109-19.5,17.156-29.125c2.125,4.5,4.547,9.25,7.281,14.094c2.906,5.156,5.969,10.031,9.188,14.688
	C266.188,192.25,261.125,192,256,192z M354.047,450.062c-6.094,6.094-12.672,11.562-19.688,16.375
	c-3.031-4.844-9.375-6.469-14.359-3.594c-5,2.891-6.766,9.188-4.078,14.25c-1.953,0.938-3.938,1.844-5.953,2.688
	c-13.828,5.844-28.359,9.359-43.328,10.484C266.438,484.562,261.75,480,256,480s-10.438,4.562-10.641,10.266
	c-14.969-1.125-29.5-4.641-43.328-10.484c-2.016-0.844-4-1.75-5.953-2.688c2.688-5.062,0.922-11.359-4.078-14.25
	c-4.984-2.875-11.328-1.25-14.359,3.594c-7.016-4.812-13.594-10.281-19.688-16.375c-6.109-6.109-11.562-12.688-16.375-19.703
	c4.828-3.031,6.453-9.375,3.562-14.359c-2.875-5-9.188-6.766-14.234-4.062c-0.938-1.969-1.828-3.953-2.688-5.969
	c-5.844-13.828-9.359-28.359-10.484-43.312C123.438,362.438,128,357.75,128,352s-4.562-10.438-10.266-10.656
	c1.125-14.969,4.641-29.484,10.484-43.312c0.859-2.016,1.75-4,2.688-5.969c5.047,2.688,11.359,0.938,14.25-4.062
	c2.875-4.984,1.25-11.328-3.578-14.359c4.812-7.016,10.266-13.594,16.375-19.703c6.094-6.094,12.672-11.562,19.688-16.375
	c3.031,4.844,9.375,6.469,14.359,3.594c5-2.891,6.766-9.188,4.078-14.25c1.953-0.938,3.938-1.844,5.953-2.688
	c13.828-5.844,28.359-9.359,43.328-10.484C245.562,219.438,250.25,224,256,224s10.438-4.562,10.641-10.266
	c14.969,1.125,29.5,4.641,43.328,10.484c2.016,0.844,4,1.75,5.953,2.688c-2.688,5.062-0.922,11.359,4.078,14.25
	c4.984,2.875,11.328,1.25,14.359-3.594c7.016,4.812,13.594,10.281,19.688,16.375c6.109,6.109,11.562,12.688,16.375,19.703
	c-4.828,3.031-6.453,9.375-3.578,14.359c2.891,5,9.203,6.766,14.25,4.062c0.938,1.969,1.828,3.953,2.688,5.969
	c5.844,13.828,9.359,28.344,10.484,43.312C388.562,341.562,384,346.25,384,352s4.562,10.438,10.266,10.656
	c-1.125,14.953-4.641,29.484-10.484,43.312c-0.859,2-1.75,4-2.688,5.953c-5.047-2.688-11.359-0.922-14.25,4.078
	c-2.875,4.984-1.25,11.328,3.578,14.359C365.609,437.375,360.156,443.953,354.047,450.062z"/>
<path d="M323.875,404.797L323.875,404.797l-57.203-57.219v-80.922c0-5.875-4.781-10.656-10.672-10.656s-10.672,4.781-10.672,10.656
	V352c0,2.938,1.203,5.625,3.125,7.547l60.344,60.328c4.172,4.172,10.922,4.172,15.078,0
	C328.047,415.719,328.047,408.969,323.875,404.797L323.875,404.797z"/>
<g>
</g>
<g>
</g>
<g>
</g>
<g>
</g>
<g>
</g>
<g>
</g>
<g>
</g>
<g>
</g>
<g>
</g>
<g>
</g>
<g>
</g>
<g>
</g>
<g>
</g>
<g>
</g>
<g>
</g>
</svg>
